<svg xmlns="http://www.w3.org/2000/svg" viewBox="0 0 64 64">
  <defs>
    <linearGradient id="grad" x1="0%" y1="0%" x2="100%" y2="100%">
      <stop offset="0%" style="stop-color:#22c55e;stop-opacity:1" />
      <stop offset="100%" style="stop-color:#16a34a;stop-opacity:1" />
    </linearGradient>
  </defs>
  <!-- Background circle -->
  <circle cx="32" cy="32" r="30" fill="url(#grad)"/>
  <!-- White heart with plus -->
  <path d="M32 52c-1 0-2-.4-2.7-1.1C23.5 45.5 14 36.8 14 27c0-5.5 4.5-10 10-10 3.3 0 6.3 1.6 8 4.2 1.7-2.6 4.7-4.2 8-4.2 5.5 0 10 4.5 10 10 0 9.8-9.5 18.5-15.3 23.9-.7.7-1.7 1.1-2.7 1.1z" fill="white"/>
  <!-- Green plus sign inside heart -->
  <rect x="29" y="22" width="6" height="18" rx="1" fill="#16a34a"/>
  <rect x="23" y="28" width="18" height="6" rx="1" fill="#16a34a"/>
</svg>
